# xmcd CD database file
#
# Track frame offsets:
#	150
#	14027
#	28365
#	38875
#	48902
#	60570
#	73235
#	83905
#	93187
#	105055
#	114890
#	127347
#	138255
#	148112
#	157240
#	171010
#
# Disc length: 2447 seconds
#
# Revision: 2
# Processed by: cddbd v1.5.2PL0 Copyright (c) Steve Scherf et al.
# Submitted via: CDex 1.51
#
DISCID=e0098d10
DTITLE=Charley Pride - RCA Country Legends
DYEAR=2000
DGENRE=Country
TTITLE0=All I Have To Offer You (Is Me)
TTITLE1=(I'm So) Afraid Of Losing You Again
TTITLE2=Does My Ring Hurt Your Finger
TTITLE3=Is Anybody Goin' To San Antone
TTITLE4=Wonder Could I Live There Anymore
TTITLE5=I'd Rather Love You
TTITLE6=I'm Just Me
TTITLE7=Kiss An Angel Good Mornin'
TTITLE8=It's Gonna Take A Little Bit Longer
TTITLE9=Busted
TTITLE10=Snakes Crawl At Night
TTITLE11=Mississippi Cotton-Pickin' Delta Town
TTITLE12=Someone Loves You Honey
TTITLE13=Honky Tonk Blues
TTITLE14=Never Been So Loved (In All My Life)
TTITLE15=Mountain Of Love
EXTD=CHARLEY PRIDE - RCA COUNTRY LEGENDS\n(1965 - 1981]\n\nBuddha Records - RCA/BMG\nAll tracks digitally remastered\n74465997602 YEAR: 2000
EXTT0=
EXTT1=
EXTT2=
EXTT3=
EXTT4=
EXTT5=
EXTT6=
EXTT7=
EXTT8=
EXTT9=
EXTT10=
EXTT11=
EXTT12=
EXTT13=
EXTT14=
EXTT15=
PLAYORDER=
